<svg width="250" height="209" viewBox="0 0 250 209" fill="none" xmlns="http://www.w3.org/2000/svg" class="logo-people">
	<mask id="mask0" mask-type="alpha" maskUnits="userSpaceOnUse" x="0" y="0" width="250" height="209">
		<rect width="250" height="208.333" fill="#C4C4C4" />
	</mask>
	<g mask="url(#mask0)">
		<path d="M164.039 102.842C170.094 106.89 202.993 109.113 218.193 97.3406C239.051 82.9725 233.928 51.1066 231.75 45.2911L226.173 44.6328C216.144 87.6092 183.33 64.3067 178.171 64.6372C158.707 71.0237 157.705 100.634 164.039 102.842Z" fill="#E0BB95" />
		<path d="M163.339 101.538C165.712 109.114 178.455 108.608 187.319 107.159C196.58 105.659 206.151 104.718 216.406 98.7705L209.651 69.3933C206.9 69.8857 199.909 73.5244 178.23 64.2628C166.838 59.3935 160.024 99.3302 163.339 101.538Z" fill="url(#paint0_radial)" />
		<path d="M206.052 70.2539C205.977 70.2666 214.649 99.8444 214.649 99.8444C215.936 99.3178 217.089 98.5118 218.025 97.485C218.025 97.485 209.718 69.1712 209.626 69.2032C208.539 69.5843 206.052 70.2539 206.052 70.2539Z" fill="white" />
		<path d="M145.2 286.778L139.844 137.669L192.188 137.5L189.062 228.906L174.477 286.778C163.522 291.929 157.12 291.886 145.2 286.778Z" fill="url(#paint1_radial)" />
		<path d="M186.719 137.5L121.094 137.607L134.766 203.125L132.127 289.69C136.376 293.81 159.637 294.306 161.513 289.69L181.25 229.297L186.719 137.5Z" fill="#555689" />
		<path d="M195.72 96.1049L192.333 137.226H121.035L116.704 95.8164C116.704 79.6586 125.306 67.0322 140.073 61.328C140.274 61.2407 142.025 60.6117 142.717 60.3952C146.639 59.1725 156.422 59.1638 156.608 59.1732C161.683 59.2338 167.781 59.5476 172.245 61.2594C173.119 61.5938 173.976 61.9556 174.818 62.3448C175.171 62.508 175.338 62.8925 175.686 63.065C176.034 63.2376 176.563 63.1983 176.905 63.3835C178.653 64.3164 180.329 65.3786 181.918 66.5611C191.449 73.5819 195.72 83.7031 195.72 96.1049Z" fill="url(#paint2_linear)" />
		<path d="M128.308 70.2123C125.24 76.7172 123.949 84.5398 124.435 93.6802C125.214 106.688 127.21 119.595 130.397 132.233C133.33 144.17 140.715 164.34 144.521 172.057L150.234 171.01C149.64 158.417 155.439 118.691 155.439 118.691C155.906 114.71 155.449 112.171 155.747 109.803C156.048 106.81 156.549 103.84 157.245 100.914C158.253 95.9982 159.49 90.867 159.698 85.7132C155.36 65.7355 131.168 64.159 128.308 70.2123Z" fill="#E0BB95" />
		<path d="M138.98 62.2217C134.801 64.0087 130.223 66.5093 127.636 69.569C124.475 76.2407 123.132 85.1298 123.655 94.0762C124.132 100.801 125.064 107.486 126.446 114.085C126.958 116.723 155.977 114.093 155.977 114.093C155.977 114.093 159.065 93.2287 163.398 89.7939C170.494 84.167 140.319 61.6487 138.98 62.2217Z" fill="#019E84" />
		<path d="M173.608 61.9346L139.17 61.772C141.186 60.9565 142.442 59.488 141.922 55.6421L139.447 41.8616C139.378 41.4353 139.394 40.9996 139.494 40.5794C139.593 40.1592 139.775 39.7627 140.028 39.4126C140.282 39.0624 140.602 38.7655 140.97 38.5388C141.338 38.312 141.748 38.1599 142.175 38.091L162.334 34.8428C163.196 34.7039 164.079 34.9126 164.788 35.423C165.496 35.9335 165.973 36.7038 166.112 37.5646L169.204 56.6642C169.031 60.0317 172.94 61.7087 173.608 61.9346Z" fill="#E0BB95" />
		<path d="M156.319 111.809L126.074 112.014C126.287 113.132 126.505 114.25 126.729 115.366L155.916 115.139C156.11 114.037 156.245 112.925 156.319 111.809Z" fill="white" />
		<path d="M140.706 62.3388C139.384 62.347 138.09 61.9599 136.99 61.2274C142.712 59.2253 148.744 58.2527 154.807 58.355H157.373C163.851 58.355 170.419 59.3277 175.715 61.4066C174.676 62.0236 173.488 62.3461 172.279 62.3394L140.706 62.3388Z" fill="white" />
		<path d="M137.243 63.8892C138.262 64.5863 139.48 64.9368 140.715 64.8887H172.364C173.855 64.8887 174.991 64.7421 176.041 64.0085L176.918 63.3962C175.406 62.5868 173.845 61.8731 172.243 61.2593C167.779 59.5476 161.683 59.2338 156.606 59.1732C156.422 59.1638 146.639 59.1732 142.715 60.3952C142.024 60.613 140.273 61.242 140.072 61.328C138.692 61.8601 137.342 62.4655 136.027 63.1417L137.243 63.8892Z" fill="white" />
		<path d="M140.713 62.8989C139.792 62.9411 138.886 62.6614 138.15 62.108C143.827 59.8466 148.653 58.0976 154.95 58.0976L157.349 57.9883C163.84 57.9883 169.364 60.0005 174.89 62.3799C174.308 62.7863 173.643 62.8989 172.362 62.8989H140.713Z" fill="#E0BB95" />
		<path d="M150.634 20.5928L154.91 19.9037C158.692 19.2943 162.561 20.2089 165.667 22.4462C168.774 24.6835 170.862 28.0603 171.473 31.8337L174.23 48.8669C174.553 50.8654 174.068 52.9103 172.88 54.5518C171.692 56.1932 169.9 57.2966 167.897 57.6194L156.913 59.3892C155.041 59.691 153.127 59.6219 151.281 59.1857C149.435 58.7495 147.693 57.9548 146.155 56.8471C144.617 55.7393 143.313 54.34 142.317 52.7293C141.321 51.1185 140.652 49.3278 140.35 47.4593L138.676 37.1184C138.065 33.3449 138.982 29.484 141.224 26.3848C143.467 23.2857 146.851 21.2023 150.633 20.5929L150.634 20.5928Z" fill="#E0BB95" />
		<path d="M174.019 40.5414C174.633 40.2157 175.138 39.7185 175.473 39.1108C175.807 38.5026 175.912 37.7955 175.77 37.1166C175.667 36.5981 175.432 36.1149 175.087 35.7133C174.743 35.3118 174.301 35.0054 173.803 34.8238C173.292 34.6633 172.82 34.3971 172.419 34.0424C172.018 33.6878 171.696 33.2527 171.475 32.7656L170.19 34.9644C169.353 36.5444 169.006 37.6914 169.151 38.4052C169.363 39.4021 169.882 40.3082 170.635 40.9971C170.961 41.2568 171.337 41.4471 171.74 41.5564C172.143 41.6656 172.564 41.6913 172.977 41.6321C173.236 41.1932 173.592 40.8199 174.019 40.5414Z" fill="#E0BB95" />
		<path d="M150.02 33.8434L138.808 35.8789L141.712 51.8066L152.925 49.771L150.02 33.8434Z" fill="url(#paint3_radial)" />
		<path d="M144.109 41.592C144.269 42.603 144.813 43.5135 145.629 44.1339C146.607 44.7102 147.769 44.8911 148.876 44.6397C148.882 44.6382 148.888 44.6345 148.891 44.6293C148.894 44.6241 148.896 44.6178 148.894 44.6117L147.586 37.2424C147.586 37.2393 147.585 37.2364 147.583 37.2337C147.581 37.2311 147.579 37.2288 147.577 37.227C147.574 37.2252 147.572 37.2239 147.569 37.2232C147.566 37.2225 147.562 37.2225 147.559 37.223C146.638 37.4029 145.03 37.8227 144.527 38.6936C144.019 39.5699 143.869 40.6082 144.109 41.592Z" fill="#E0BB95" />
		<path opacity="0.75" d="M168.332 42.3023C164.1 43.1399 164.058 45.5292 161.052 46.1409C157.38 46.8885 155.605 46.3215 153.64 45.1295C152.505 44.4392 151.556 42.9813 150.935 40.2215L148.678 29.7266L145.918 29.8718L148.395 42.4396C149.591 48.6036 150.198 54.4424 153.717 56.8057C155.983 58.4568 158.813 59.1449 161.586 58.7193L167.739 57.6533C169.77 57.3265 171.589 56.2142 172.802 54.5577C174.016 52.9012 174.526 50.8341 174.222 48.8048L173.052 41.5774C171.463 41.7031 169.885 41.9454 168.332 42.3023Z" fill="url(#paint4_linear)" />
		<path d="M166.898 36.9334C167.46 36.843 167.783 35.953 167.619 34.9456C167.456 33.9382 166.869 33.1949 166.308 33.2854C165.746 33.3759 165.423 34.2659 165.586 35.2732C165.749 36.2806 166.337 37.0239 166.898 36.9334Z" fill="#33312D" />
		<path d="M171.575 45.425C171.432 45.9339 171.117 46.3775 170.682 46.6796C170.228 46.9891 169.683 47.1388 169.134 47.1054C168.594 47.0715 168.077 46.8765 167.649 46.5457C167.24 46.2318 166.927 45.8105 166.744 45.329C166.732 45.2993 166.731 45.2666 166.741 45.2363C166.751 45.206 166.771 45.1801 166.798 45.1628C166.825 45.1455 166.857 45.138 166.888 45.1414C166.92 45.1449 166.95 45.1591 166.972 45.1818V45.1858C167.536 45.833 168.322 46.2463 169.176 46.3445C169.593 46.3651 170.009 46.2807 170.385 46.0988C170.762 45.9169 171.086 45.6435 171.328 45.3037C171.351 45.2746 171.384 45.2555 171.42 45.2505C171.457 45.2455 171.494 45.255 171.523 45.277C171.545 45.2939 171.562 45.317 171.571 45.3433C171.58 45.3696 171.581 45.398 171.575 45.425Z" fill="#BF8F68" />
		<path d="M238.428 25.9957C237.324 28.9274 237.76 29.8749 236.558 34.8702C235.823 38.0018 233.474 44.3523 229.842 46.8696L225.987 44.928L225.991 44.91C225.909 43.7567 225.903 42.5993 225.972 41.4452C226.239 37.2331 227.3 33.1092 229.102 29.2906C229.206 29.1174 229.362 28.9812 229.548 28.9012C229.733 28.8212 229.94 28.8014 230.137 28.8447C230.335 28.888 230.514 28.9922 230.649 29.1425C230.784 29.2928 230.868 29.4816 230.89 29.6823C230.999 30.2887 231.029 32.6461 231.036 34.3671C231.036 34.4699 231.071 34.5696 231.135 34.6502C231.199 34.7307 231.289 34.7874 231.389 34.8111C231.489 34.8348 231.594 34.8241 231.688 34.7808C231.781 34.7375 231.857 34.6641 231.904 34.5723C233.479 31.5147 234.615 26.8212 236.46 24.5112C237.592 23.2932 239.631 24.234 238.428 25.9957Z" fill="#E0BB95" />
		<path d="M219.725 33.4417L242.037 36.1298C243.79 36.341 245.397 35.0795 245.609 33.3265L247.749 15.5567C247.903 14.2818 247.25 12.9905 246.033 12.3588L234.337 6.0992L221.49 9.4018C220.157 9.7263 219.216 10.8256 219.063 12.1005L216.922 29.8703C216.711 31.6233 217.972 33.2305 219.725 33.4417Z" fill="#00AE91" />
		<path d="M238.727 27.6933C237.531 30.2497 237.846 31.1305 236.407 35.536C236.368 35.6579 236.321 35.818 236.274 35.9464C234.938 35.6421 233.609 35.3068 232.279 35.003C232.303 34.9778 232.325 34.9502 232.344 34.9207C233.957 32.2887 235.316 28.1484 237.108 26.2114C238.196 25.1947 239.92 26.1966 238.727 27.6933Z" fill="#52B9A8" />
		<path d="M229.842 46.8676L225.987 44.926L225.991 44.908C225.909 43.7547 225.903 42.5973 225.972 41.4432C226.239 37.2311 227.3 33.1072 229.102 29.2886C229.206 29.1154 229.362 28.9792 229.547 28.8992C229.733 28.8192 229.94 28.7994 230.137 28.8427C230.335 28.886 230.514 28.9902 230.649 29.1405C230.784 29.2908 230.868 29.4796 230.89 29.6803C230.999 30.2867 231.029 32.6441 231.036 34.3651C231.037 34.8395 233.474 44.3503 229.842 46.8676Z" fill="#E0BB95" />
		<path d="M48.51 73.8498C58.3916 73.7919 66.346 64.167 66.2765 52.3518C66.2071 40.5367 58.1401 31.0055 48.2585 31.0633C38.3769 31.1211 30.4225 40.746 30.492 52.5612C30.5614 64.3764 38.6283 73.9076 48.51 73.8498Z" fill="#3A312E" />
		<path d="M81.3372 95.7413C67.7914 71.5985 69.8609 57.8827 66.2641 46.3231C60.4869 27.7566 37.4902 27.8572 31.6997 47.004C28.2511 58.4071 30.4502 73.6128 18.0704 97.8235C15.4659 103.04 85.0609 102.384 81.3372 95.7413Z" fill="#3A312E" />
		<path d="M85.3076 109.159C85.5079 125.506 82.0353 139.184 50.5321 139.184C31.125 139.184 15.2338 126.359 15.0341 110.012C14.8345 93.6653 30.4044 80.2227 49.8096 79.9875C69.2148 79.7523 85.1079 92.8125 85.3076 109.159Z" fill="#3A312E" />
		<path d="M30.2491 134.597C40.333 118.576 61.2881 134.903 54.1392 155.418C53.1836 159.016 30.7813 202.103 30.804 213.347C30.8768 248.698 32.2405 280.954 32.2405 280.954C32.2405 280.954 32.1884 284.178 29.4003 284.152C27.9678 284.14 27.0843 283.012 26.5287 281.405C20.1378 264.338 13.0276 238.178 9.02812 214.678C5.99561 196.845 20.7174 149.747 30.2491 134.597Z" fill="url(#paint5_radial)" />
		<path d="M31.0351 102.319C37.7186 102.191 40.2769 81.7581 40.2769 81.7581C43.9619 76.8788 50.2139 76.4603 53.4114 78.8863C56.4593 81.1984 56.7591 84.9124 54.8318 88.3152C54.8318 88.3152 53.6211 116.087 34.67 116.824C20.6768 117.368 12.5435 88.8196 11.873 79.9111L15.9974 79.5486C18.5324 89.4812 25.6947 102.42 31.0351 102.319Z" fill="url(#paint6_radial)" />
		<path d="M65.9585 137.13C60.3175 117.569 36.4734 126.842 37.1325 148.556C36.9436 152.431 39.6609 187.386 42.3415 220.936C45.0508 254.839 47.726 287.319 47.726 287.319H47.7781C47.8287 288.119 48.1895 288.868 48.7839 289.406C49.3783 289.945 50.1596 290.232 50.9622 290.205C52.4567 290.084 53.2748 288.827 53.7136 287.168C57.0112 265.302 60.3342 245.762 62.9901 224.984C67.787 187.454 70.3173 152.25 65.9585 137.13Z" fill="#FCFAF1" />
		<path d="M29.0381 143.954C29.0381 131.427 37.4198 121.477 47.9498 121.477C58.4798 121.477 67.015 131.632 67.015 144.159C67.015 156.687 58.4791 166.843 47.9498 166.843C37.4204 166.843 29.0381 156.481 29.0381 143.954Z" fill="#FCFAF1" />
		<path d="M61.3661 90.2848C61.6333 84.0056 57.2771 78.7216 51.6362 78.4827C45.9954 78.2437 41.206 83.1403 40.9389 89.4195C40.6717 95.6987 45.0279 100.983 50.6687 101.222C56.3095 101.461 61.0989 96.564 61.3661 90.2848Z" fill="#8B8CC7" />
		<path d="M66.591 138.111L29.1523 137.035C29.1523 137.035 30.9982 105.13 35.7096 88.9871C37.9387 81.3493 40.8784 76.2054 45.8435 72.4475C48.0772 70.6443 50.9021 69.7324 53.7711 69.8882C56.4854 69.9424 59.1088 70.8739 61.2472 72.5428C66.963 76.8737 69.8299 83.4921 68.1537 96.5823C67.4191 102.336 62.9915 112.769 63.8797 122.02L66.591 138.111Z" fill="#1DC1A6" />
		<path d="M61.1791 72.3125C58.7149 69.6359 58.8418 65.9733 59.2472 62.711L60.5006 52.6932L50.8174 52.4727L49.588 67.118C49.4471 68.7737 47.2867 71.4336 45.8483 72.4484C45.4396 72.7375 48.3919 72.6196 48.8855 72.6156L61.1791 72.3125Z" fill="url(#paint7_radial)" />
		<path d="M38.2623 104.382C44.6064 102.395 51.4541 82.3843 51.4541 82.3843C53.4315 76.6974 59.2675 74.5533 63.0887 75.9772C66.7296 77.3344 68.1894 80.7978 67.4241 84.5844C67.4241 84.5844 58.3419 111.335 40.7285 117.957C23.4389 124.457 17.7465 88.0758 16.4717 80.2901L20.2949 78.7929C23.481 88.6749 33.1943 105.969 38.2623 104.382Z" fill="#E0BB95" />
		<path d="M61.5515 72.7599C58.5423 72.4607 56.7493 72.1089 52.0686 73.1277C48.433 73.9193 45.7859 73.6201 45.3691 72.9098C47.5789 70.7039 50.5538 69.4296 53.6787 69.3504C56.6858 69.3751 57.9961 68.962 61.5515 72.7599Z" fill="#E0BB95" />
		<path d="M40.5924 34.9102L40.7135 34.8773C42.058 34.5116 43.4615 34.4137 44.8439 34.5893C46.2262 34.7649 47.5604 35.2104 48.7702 35.9006C49.9799 36.5907 51.0416 37.5118 51.8945 38.6114C52.7473 39.711 53.3748 40.9674 53.7409 42.309L57.1447 54.7811C57.8476 57.3568 57.4962 60.1056 56.1679 62.4228C54.8395 64.74 52.643 66.4357 50.0615 67.1371L49.9365 67.171C48.939 67.442 47.8978 67.5144 46.8724 67.3839C45.8469 67.2534 44.8572 66.9226 43.9599 66.4105C43.0625 65.8984 42.275 65.215 41.6424 64.3992C41.0097 63.5835 40.5443 62.6514 40.2727 61.6562L35.4302 43.9123C34.918 42.0355 35.1741 40.0326 36.142 38.3442C37.1099 36.6558 38.7104 35.4201 40.5914 34.9091L40.5924 34.9102Z" fill="#E0BB95" />
		<path d="M58.204 55.0041L54.0685 56.1276L52.0914 48.8829L56.2268 47.7594C57.146 47.5096 58.127 47.6344 58.954 48.1064C59.781 48.5783 60.3862 49.3587 60.6365 50.2759L60.7255 50.6018C60.8498 51.0561 60.8832 51.5303 60.8238 51.9974C60.7643 52.4646 60.6132 52.9154 60.379 53.3243C60.1448 53.7331 59.8322 54.0919 59.459 54.3801C59.0858 54.6684 58.6593 54.8804 58.204 55.0041Z" fill="#E0BB95" />
		<path d="M37.0849 49.9727C37.4959 51.9591 37.2101 54.0262 36.2755 55.8274C36.0851 56.2794 36.0414 56.7795 36.1505 57.2576C36.2596 57.7356 36.5161 58.1675 36.8839 58.4927C37.334 58.8258 39.5799 59.1869 39.9158 60.3496" fill="#E0BB95" />
		<path d="M45.8174 46.3774L45.668 46.418L45.7127 46.5819L45.8621 46.5413L45.8174 46.3774Z" fill="url(#paint8_radial)" />
		<path d="M42.36 61.7314C42.6757 61.8511 43.0166 61.8895 43.3512 61.8429C43.6857 61.7963 44.0031 61.6663 44.2739 61.4649C44.5465 61.2711 44.7799 61.0276 44.9618 60.7473C45.1542 60.4517 45.2802 60.118 45.3311 59.7691V59.7651C45.3355 59.7328 45.3505 59.7028 45.3737 59.6798C45.397 59.6568 45.4271 59.6421 45.4596 59.6379C45.492 59.6338 45.525 59.6404 45.5533 59.6567C45.5816 59.6731 45.6037 59.6983 45.6162 59.7285C45.7794 60.1597 45.7694 60.6371 45.5882 61.0611C45.4149 61.4909 45.1203 61.8613 44.7401 62.1272C44.3541 62.4039 43.8875 62.546 43.4124 62.5316C43.1826 62.5234 42.9566 62.4697 42.7476 62.3737C42.5387 62.2778 42.3509 62.1414 42.195 61.9726C42.1732 61.9482 42.16 61.9172 42.1576 61.8845C42.1552 61.8519 42.1637 61.8193 42.1818 61.792C42.1998 61.7646 42.2264 61.744 42.2574 61.7333C42.2885 61.7225 42.3222 61.7224 42.3533 61.7327L42.36 61.7314Z" fill="#BF8F68" />
		<path d="M42.3024 54.3395C42.8708 54.1759 43.1083 53.2706 42.8327 52.3173C42.5572 51.3641 41.873 50.7239 41.3046 50.8874C40.7362 51.051 40.4988 51.9564 40.7743 52.9096C41.0498 53.8628 41.734 54.503 42.3024 54.3395Z" fill="#3A312E" />
		<path d="M17.6898 74.7139L16.8597 73.5319C16.2667 72.6413 15.7808 71.9652 15.4019 71.5037C15.0328 71.1204 14.7243 71.0111 14.4763 71.1759C14.2052 71.3696 14.1417 71.7249 14.286 72.242C14.5579 73.6024 14.9375 74.9392 15.4213 76.2398C15.7044 77.0074 11.1139 80.0304 16.3081 84.0942C16.7823 84.4653 16.9525 82.7376 17.7506 81.3763C18.5486 80.0151 17.6898 74.7139 17.6898 74.7139Z" fill="#E0BB95" />
		<path d="M0.0742188 62.3953C0.308793 61.8354 0.700471 61.3551 1.20215 61.012L5.0367 60.0372C5.46077 59.8892 5.92432 59.9001 6.34093 60.0679C6.69166 60.3758 6.97571 60.752 7.17569 61.1733L17.5448 78.3139C17.7991 78.6293 17.9291 79.0268 17.91 79.4313C17.906 79.7777 16.6839 80.8078 16.4409 80.9024L13.216 81.5914C13.0599 81.6266 12.8977 81.6251 12.7422 81.5869C12.5868 81.5488 12.4424 81.475 12.3205 81.3715C11.9556 81.1345 11.652 80.8149 11.4343 80.4387L0.701293 63.7045C0.404671 63.3155 0.191241 62.8699 0.0742188 62.3953Z" fill="#847F7D" />
		<path d="M0.00411692 62.6563C-0.0212598 62.3439 0.0708969 62.1606 0.274579 62.1053L3.85804 61.1412C4.05793 61.0772 4.31682 61.166 4.6347 61.4077C4.98024 61.6808 5.27422 62.0131 5.50285 62.3892L16.1511 79.3292C16.3708 79.6512 16.5163 80.0178 16.5771 80.4026C16.6078 80.7247 16.5235 80.9174 16.324 80.981L12.7406 81.9458C12.5947 81.9588 12.4477 81.9393 12.3102 81.8887C12.1728 81.8381 12.0483 81.7577 11.9459 81.6533C11.6032 81.3922 11.3128 81.0692 11.0897 80.7011L0.440863 63.7617C0.214517 63.4304 0.0652948 63.0527 0.00411692 62.6563Z" fill="#595553" />
		<path d="M3.11784 64.0982C2.85572 63.8978 2.63333 63.6504 2.46206 63.3686C2.29151 63.1192 2.17923 62.8348 2.13349 62.5364C2.10767 62.2925 2.17178 62.1491 2.32582 62.106C2.43518 62.094 2.54584 62.1064 2.6498 62.1424C2.75375 62.1784 2.84838 62.2369 2.92685 62.3139C3.1882 62.5197 3.41071 62.7704 3.58397 63.0541C3.75354 63.3 3.86539 63.5808 3.9112 63.8757C3.93858 64.1262 3.87514 64.2755 3.72087 64.3168C3.61036 64.3278 3.49877 64.3139 3.39438 64.2761C3.28999 64.2383 3.19547 64.1775 3.11784 64.0982Z" fill="#96938F" />
		<path d="M6.77402 68.7915C7.31294 68.9848 6.38603 71.4567 6.38603 71.4567L6.58637 72.7054L8.03084 71.9831C8.03084 71.9831 9.89536 72.189 10.5745 72.2736C11.2924 72.3636 11.9101 77.6433 11.9101 77.6433C11.9101 77.6433 11.6757 78.2803 12.1412 78.2803C12.4711 78.2803 14.0378 79.5963 14.5573 81.0262C14.7092 81.5514 14.7289 82.1059 14.6148 82.6406L13.7079 83.1343C13.7079 83.1343 12.8484 82.6966 12.4711 82.476C11.0689 81.6815 9.59535 81.0196 8.06957 80.4991C7.83584 80.4078 6.19971 79.3957 6.16699 79.1299C6.12759 78.8434 4.82737 74.2932 4.93088 73.7581C4.87425 72.9132 4.8709 72.0656 4.92085 71.2202C5.14123 70.6472 6.05212 68.5317 6.77402 68.7915Z" fill="#E0BB95" />
		<path d="M17.5435 81.9098L20.6028 80.278L20.2942 75.338C20.2214 74.1319 20.0199 72.9369 19.6932 71.7733C19.4948 70.8776 19.1987 70.0062 18.8104 69.1748C18.5922 68.7856 18.2162 68.0123 17.6824 66.8547C17.3927 66.2056 16.9961 65.6094 16.5091 65.091C16.2596 64.9425 15.979 64.8537 15.6894 64.8315C15.3997 64.8094 15.1089 64.8544 14.8396 64.9631C14.5849 64.7076 14.2684 64.3732 13.89 63.9596C13.6466 63.7367 13.3619 63.5633 13.0519 63.4492C12.4134 63.499 12.1815 63.8472 12.356 64.494L13.9754 72.0838C13.9754 72.0838 13.2308 75.8691 13.9861 77.0558L17.5435 81.9098Z" fill="#E0BB95" />
		<path d="M35.2979 38.5702C35.2979 38.5702 38.1394 44.1458 45.7744 44.9101C56.8033 46.0135 58.1556 51.773 58.1556 51.773C58.1556 51.773 61.9621 43.3616 52.6402 36.6246C42.1983 29.0801 35.2979 38.5702 35.2979 38.5702Z" fill="#3A312E" />
		<path d="M186.673 70.1205L184.351 67.1501L186.844 62.3707C187.451 61.2031 188.181 60.1033 189.022 59.0899C189.616 58.2854 190.296 57.5481 191.051 56.8911C191.441 56.6006 192.157 55.9967 193.2 55.0794C193.775 54.5606 194.432 54.1413 195.146 53.8388C195.46 53.8011 195.778 53.8365 196.076 53.9422C196.374 54.0478 196.644 54.2209 196.863 54.4478C197.229 54.3056 197.692 54.1122 198.252 53.8674C198.593 53.7528 198.952 53.7055 199.311 53.7282C199.925 54.06 200.001 54.5088 199.542 55.0748L194.572 61.913L196.15 61.4646C197.31 61.1034 198.222 60.8547 198.888 60.7183C199.488 60.645 199.838 60.7692 199.938 61.0908C200.038 61.4546 199.839 61.8128 199.341 62.1655C198.126 63.1676 196.834 64.0722 195.476 64.8707C194.675 65.3451 193.637 66.0068 192.363 66.8556L186.673 70.1205Z" fill="#E0BB95" />
		<path d="M129.449 140.566C123.428 118.704 99.4485 122.518 100.242 146.288C99.8786 154.763 111.74 298.849 111.74 298.849C111.74 298.849 113.639 301.793 115.317 301.793C116.888 301.793 117.742 300.493 118.195 298.721C121.275 268.533 136.68 166.816 129.449 140.566Z" fill="#00AE91" />
		<path d="M73.2465 141.949C79.2681 120.087 103.246 123.901 102.453 147.671C102.816 156.146 90.9554 300.231 90.9554 300.231C90.9554 300.231 89.0568 303.176 87.3786 303.176C85.808 303.176 84.9532 301.876 84.5004 300.104C81.4205 269.913 66.0155 168.198 73.2465 141.949Z" fill="#00AE91" />
		<path d="M88.4293 36.3211C90.2036 46.4489 99.2912 53.2991 108.727 51.6227C118.162 49.9463 124.373 40.3789 122.6 30.2524C120.826 20.126 115.528 12.828 102.306 14.9508C89.0831 17.0737 86.6556 26.1947 88.4293 36.3211Z" fill="#59453C" />
		<path d="M95.6971 39.8765L100.792 39.0579L102.057 46.8986L96.9626 47.7171C95.9204 47.8845 94.8542 47.6321 93.9986 47.0152C93.143 46.3984 92.5681 45.4676 92.4003 44.4278C92.2326 43.3881 92.4858 42.3245 93.104 41.471C93.7223 40.6174 94.655 40.0439 95.6971 39.8765Z" fill="#E0BB95" />
		<path d="M119.652 51.9983C118.638 51.9993 117.664 51.6091 116.933 50.9096C116.202 50.2101 115.77 49.2554 115.729 48.2455C115.687 47.2356 116.039 46.2488 116.71 45.4919C117.382 44.7349 118.321 44.2665 119.33 44.1847C120.34 44.1029 121.342 44.4141 122.127 45.0531C122.912 45.692 123.419 46.6092 123.541 47.6126C123.663 48.6159 123.392 49.6276 122.783 50.4357C122.175 51.2437 121.276 51.7855 120.277 51.9476C120.07 51.9811 119.861 51.9981 119.652 51.9983ZM119.662 44.7469C119.481 44.7469 119.3 44.7612 119.121 44.7895C118.267 44.927 117.5 45.3886 116.979 46.0778C116.459 46.767 116.226 47.6303 116.329 48.4871C116.432 49.3439 116.863 50.1278 117.532 50.6746C118.201 51.2214 119.056 51.4888 119.919 51.4208C120.781 51.3529 121.583 50.9548 122.158 50.3099C122.733 49.6651 123.035 48.8234 123.002 47.9611C122.969 47.0988 122.603 46.2826 121.98 45.6836C121.358 45.0845 120.527 44.7488 119.662 44.7469Z" fill="#FFB900" />
		<path d="M92.7744 23.0045C92.898 12.7328 104.214 8.97549 111.996 10.8112C118.808 12.4156 123.307 18.2191 124.582 13.3284C124.582 13.3284 130.349 17.696 129.929 23.7767C129.51 29.8574 124.474 32.6852 119.39 31.4392C116.008 30.609 112.208 25.7496 105.566 23.339C100.05 21.3334 92.7744 23.0045 92.7744 23.0045Z" fill="#59453C" />
		<path d="M118.61 68.8016C118.61 68.8016 134.261 77.7041 153.781 77.2124C164.299 76.9458 184.859 66.5469 184.859 66.5469L188.795 69.3527C185.478 70.2382 180.711 80.6891 155.404 87.1529C150.17 88.4895 119.242 90.4051 109.659 81.9604C106.583 79.2492 104.645 76.4388 105.686 73.1652C107.18 68.5145 114.426 66.3923 118.61 68.8016Z" fill="#E0BB95" />
		<path d="M75.4913 138.131C75.5 138.14 128.861 138.531 128.8 138.435C127.824 134.829 118.601 107.744 122.954 92.0329C124.635 86.9636 124.747 84.1265 124.552 81.2161C124.187 75.7524 122.152 71.1863 116.324 67.7741C116.29 67.7562 116.264 67.7388 116.229 67.7208C112.242 65.4445 107.729 64.2441 103.136 64.2381C98.6616 64.2001 95.6564 64.4187 91.0486 66.5415C91.0218 66.5502 77.098 73.2905 78.7869 84.495C79.426 88.7373 81.1463 91.7637 81.9924 97.2393C84.7905 115.353 75.3303 137.457 75.4913 138.131Z" fill="url(#paint9_radial)" />
		<path d="M90.335 128.327L112.197 128.269C112.599 128.252 112.983 128.103 113.292 127.845C113.6 127.588 113.814 127.236 113.901 126.844L120.207 94.801C120.251 94.6297 120.255 94.4503 120.218 94.2773C120.181 94.1042 120.103 93.9423 119.992 93.8045C119.881 93.6667 119.738 93.5569 119.577 93.4838C119.415 93.4108 119.239 93.3765 119.061 93.3838L97.1994 93.4417C96.7977 93.4588 96.4128 93.6077 96.1046 93.8653C95.7963 94.1229 95.5818 94.4747 95.4944 94.8663L89.189 126.909C89.1443 127.081 89.1404 127.26 89.1778 127.433C89.2151 127.606 89.2926 127.768 89.404 127.906C89.5155 128.044 89.6577 128.154 89.8194 128.227C89.9811 128.3 90.1576 128.334 90.335 128.327Z" fill="white" />
		<path d="M98.4165 61.0307L98.7277 49.8242L109.438 50.178L109.072 61.2046C109.065 63.7019 109.266 64.6028 111.819 65.9354C114.988 67.5892 108.604 67.8537 103.654 67.6898C98.7044 67.5259 92.1318 66.1506 94.7723 65.2731C97.0462 64.5168 98.5474 64.0957 98.4165 61.0307Z" fill="url(#paint10_radial)" />
		<path d="M93.9112 40.3964C95.5206 50.3676 102.789 57.493 110.145 56.3117C117.501 55.1303 122.16 46.088 120.551 36.1161C118.941 26.1442 111.822 19.9383 104.466 21.1203C97.11 22.3023 92.3024 30.4245 93.9112 40.3964Z" fill="#E0BB95" />
		<path d="M97.1068 55.8511C96.0942 55.851 95.1208 55.4599 94.3906 54.7598C93.6605 54.0598 93.2301 53.1049 93.1897 52.0954C93.1492 51.0858 93.5019 50.0998 94.1738 49.3438C94.8456 48.5878 95.7846 48.1206 96.7941 48.0398C97.8035 47.9591 98.8051 48.2713 99.589 48.9109C100.373 49.5504 100.879 50.4679 101 51.471C101.121 52.4741 100.848 53.4851 100.239 54.2923C99.6302 55.0994 98.7316 55.6401 97.7319 55.8011C97.5252 55.8344 97.3162 55.8511 97.1068 55.8511ZM97.1108 48.6004C96.6488 48.6011 96.1919 48.6971 95.7688 48.8825C95.3458 49.0679 94.9658 49.3386 94.6527 49.6776C94.3395 50.0166 94.1001 50.4166 93.9494 50.8524C93.7987 51.2882 93.7399 51.7504 93.7769 52.2099C93.8139 52.6694 93.9457 53.1163 94.1641 53.5226C94.3826 53.9288 94.6829 54.2856 95.0462 54.5704C95.4095 54.8553 95.8279 55.062 96.2752 55.1777C96.7224 55.2934 97.1889 55.3156 97.6451 55.2427C98.4774 55.1099 99.2289 54.6688 99.7497 54.0076C100.27 53.3463 100.522 52.5135 100.455 51.6752C100.387 50.8369 100.006 50.0548 99.3859 49.4849C98.7661 48.9149 97.9537 48.5991 97.1108 48.6004Z" fill="#FFB900" />
		<path d="M103.787 41.7143C104.424 41.6217 104.813 40.6802 104.657 39.6115C104.501 38.5427 103.858 37.7514 103.222 37.844C102.585 37.9366 102.195 38.8781 102.351 39.9469C102.507 41.0156 103.15 41.8069 103.787 41.7143Z" fill="#3A312E" />
		<path d="M108.456 29.5941L109.635 34.8759C110.142 37.639 111.989 39.8225 113.229 41.0185C113.519 41.3045 113.692 41.6876 113.716 42.0938C113.739 42.5 113.61 42.9003 113.354 43.2173C112.507 44.2941 111.477 45.9098 111.643 47.2451L112.317 50.3974L120.425 49.8024L117.536 28.2422L108.456 29.5941Z" fill="url(#paint11_radial)" />
		<path d="M92.3096 66.0286C96.0693 68.0629 101.038 69.3142 106.77 69.3601C110.583 69.3928 113.203 68.2441 114.668 66.8795C110.561 64.5894 107.747 63.6813 103.127 63.6426C98.8982 63.61 96.4059 63.9624 92.3096 66.0286Z" fill="#E0BB95" />
		<path d="M113.653 48.9078C113.273 49.3527 112.794 49.7037 112.255 49.9332C111.716 50.1627 111.131 50.2644 110.546 50.2304C109.96 50.1963 109.391 50.0275 108.882 49.7371C108.373 49.4467 107.939 49.0426 107.613 48.5566C107.594 48.528 107.585 48.4934 107.589 48.4591C107.592 48.4247 107.608 48.3928 107.633 48.3689C107.658 48.345 107.691 48.3307 107.725 48.3284C107.76 48.3262 107.794 48.3362 107.822 48.3567H107.825C108.633 48.9614 109.592 49.3305 110.597 49.4228C111.606 49.4599 112.604 49.2034 113.469 48.6845H113.473C113.49 48.675 113.509 48.6689 113.528 48.6667C113.547 48.6645 113.567 48.6662 113.586 48.6716C113.604 48.6771 113.622 48.6862 113.637 48.6985C113.652 48.7108 113.664 48.726 113.673 48.7432C113.687 48.7694 113.692 48.7992 113.689 48.8285C113.685 48.8579 113.673 48.8855 113.653 48.9078Z" fill="#BF8F68" />
		<path d="M84.4946 92.3104C78.1311 98.2765 74.5817 103.442 68.6048 116.569C68.1079 117.66 57.4791 113.82 59.9393 106.465C61.9594 100.426 70.5368 83.6199 79.9315 74.4635C82.5119 71.9496 87.5445 67.6506 89.188 71.8343C91.548 77.837 88.1823 88.8537 84.4946 92.3104Z" fill="#E0BB95" />
		<path d="M75.9221 101.561C76.5632 102.361 73.1273 105.452 75.5348 106.638C80.904 109.281 89.2916 111.173 95.9029 111.525L96.1574 115.463C93.5276 115.887 74.1197 124.468 61.8888 113.427C58.1638 110.062 68.6263 92.4481 75.9221 101.561Z" fill="#E0BB95" />
		<path d="M114.991 39.9174C115.628 39.8248 116.018 38.8833 115.861 37.8146C115.705 36.7458 115.062 35.9545 114.426 36.0471C113.789 36.1398 113.399 37.0812 113.555 38.15C113.711 39.2187 114.354 40.0101 114.991 39.9174Z" fill="#3A312E" />
		<path d="M90.6807 26.4267C90.6807 26.4267 97.9972 21.0237 104.759 19.9376C111.522 18.8516 118.474 21.9545 118.474 21.9545L121.441 35.9742L120.573 36.4719L116.749 26.4047C116.601 26.0139 116.326 25.6838 115.968 25.4675C115.609 25.2511 115.189 25.1609 114.773 25.2114L97.8055 27.9432C97.395 28.0255 97.0241 28.2429 96.7522 28.5605C96.4802 28.8781 96.323 29.2776 96.3056 29.6949L95.7834 40.4544L91.4066 40.8049L90.6807 26.4267Z" fill="#59453C" />
		<path d="M91.3271 111.925L92.4771 115.514L97.8383 116.155C99.1473 116.313 100.469 116.331 101.782 116.21C102.783 116.175 103.776 116.03 104.745 115.779C105.206 115.62 106.11 115.371 107.457 115.029C108.21 114.848 108.928 114.543 109.581 114.125C109.79 113.888 109.941 113.606 110.022 113.301C110.103 112.996 110.112 112.676 110.048 112.366C110.373 112.144 110.794 111.872 111.312 111.55C111.599 111.333 111.841 111.064 112.025 110.755C112.096 110.063 111.768 109.747 111.04 109.806L102.573 110.045L103.835 108.998C104.788 108.246 105.508 107.634 105.996 107.163C106.396 106.711 106.491 106.352 106.279 106.089C106.035 105.801 105.626 105.763 105.053 105.975C103.538 106.41 102.061 106.965 100.634 107.633C99.7912 108.024 98.6583 108.506 97.2359 109.079L91.3271 111.925Z" fill="#E0BB95" />
	</g>
	<defs>
		<radialGradient id="paint0_radial" cx="0" cy="0" r="1" gradientUnits="userSpaceOnUse" gradientTransform="translate(186.875 96.5738) scale(30.6998 30.6305)">
			<stop offset="0.105" stop-color="#00B092" />
			<stop offset="0.437" stop-color="#00A78C" />
			<stop offset="0.744" stop-color="#01AF92" />
			<stop offset="1" stop-color="#01AE92" />
		</radialGradient>
		<radialGradient id="paint1_radial" cx="0" cy="0" r="1" gradientUnits="userSpaceOnUse" gradientTransform="translate(156.767 208.412) scale(38.3138 60.1323)">
			<stop stop-color="#252653" />
			<stop offset="0.913" stop-color="#43446F" />
		</radialGradient>
		<linearGradient id="paint2_linear" x1="154.592" y1="74.66" x2="162.244" y2="170.827" gradientUnits="userSpaceOnUse">
			<stop stop-color="#00AE91" />
			<stop offset="0.256" stop-color="#00AF92" />
			<stop offset="0.563" stop-color="#00957C" />
			<stop offset="0.895" stop-color="#007460" />
		</linearGradient>
		<radialGradient id="paint3_radial" cx="0" cy="0" r="1" gradientUnits="userSpaceOnUse" gradientTransform="translate(146.691 42.3809) rotate(-10.2892) scale(6.45793 4.87835)">
			<stop stop-color="#9B643D" />
			<stop offset="0.455" stop-color="#B98963" />
			<stop offset="1" stop-color="#E0BB95" />
		</radialGradient>
		<linearGradient id="paint4_linear" x1="162.72" y1="55.853" x2="159.038" y2="32.808" gradientUnits="userSpaceOnUse">
			<stop offset="0.014" stop-color="#333333" />
			<stop offset="0.481" stop-color="#33312D" />
			<stop offset="1" stop-color="#E0BB95" />
		</linearGradient>
		<radialGradient id="paint5_radial" cx="0" cy="0" r="1" gradientUnits="userSpaceOnUse" gradientTransform="translate(110.677 173.441) scale(88.518 88.3183)">
			<stop offset="0.031" stop-color="#FCFAF1" />
			<stop offset="0.479" stop-color="#F8F4E2" />
			<stop offset="1" stop-color="#EBE5CC" />
		</radialGradient>
		<radialGradient id="paint6_radial" cx="0" cy="0" r="1" gradientUnits="userSpaceOnUse" gradientTransform="translate(37.8334 95.5447) scale(21.444 20.1547)">
			<stop offset="0.211" stop-color="#9B643D" />
			<stop offset="0.57" stop-color="#B98963" />
			<stop offset="1" stop-color="#E0BB95" />
		</radialGradient>
		<radialGradient id="paint7_radial" cx="0" cy="0" r="1" gradientUnits="userSpaceOnUse" gradientTransform="translate(6872.12 11881) rotate(1.32664) scale(313.159 406.36)">
			<stop offset="0.211" stop-color="#9B643D" />
			<stop offset="0.57" stop-color="#B98963" />
			<stop offset="1" stop-color="#E0BB95" />
		</radialGradient>
		<radialGradient id="paint8_radial" cx="0" cy="0" r="1" gradientUnits="userSpaceOnUse" gradientTransform="translate(45.9087 46.5869) rotate(150.132) scale(0.0714954 0.0819951)">
			<stop stop-color="#9B643D" />
			<stop offset="0.27" stop-color="#A46E47" stop-opacity="0.756" />
			<stop offset="0.868" stop-color="#BA8962" stop-opacity="0.141" />
			<stop offset="1" stop-color="#BF8F68" stop-opacity="0" />
		</radialGradient>
		<radialGradient id="paint9_radial" cx="0" cy="0" r="1" gradientUnits="userSpaceOnUse" gradientTransform="translate(102.145 101.286) scale(24.6141 19.2048)">
			<stop stop-color="#C8C6C4" />
			<stop offset="0.0001" stop-color="#FCFAF1" />
			<stop offset="1" stop-color="#ECE7D1" />
		</radialGradient>
		<radialGradient id="paint10_radial" cx="0" cy="0" r="1" gradientUnits="userSpaceOnUse" gradientTransform="translate(-25712.7 2432.62) rotate(-178.112) scale(270.197 261.562)">
			<stop stop-color="#9B643D" />
			<stop offset="0.455" stop-color="#B98963" />
			<stop offset="1" stop-color="#E0BB95" />
		</radialGradient>
		<radialGradient id="paint11_radial" cx="0" cy="0" r="1" gradientUnits="userSpaceOnUse" gradientTransform="translate(6240.79 251.769) rotate(-4.80994) scale(140.055 273.579)">
			<stop stop-color="#9B643D" />
			<stop offset="0.27" stop-color="#A46E47" stop-opacity="0.756" />
			<stop offset="0.868" stop-color="#BA8962" stop-opacity="0.141" />
			<stop offset="1" stop-color="#BF8F68" stop-opacity="0" />
		</radialGradient>
	</defs>
</svg>
